<?xml version="1.0" encoding="utf-8"?>
<!-- Generator: Adobe Illustrator 16.0.4, SVG Export Plug-In . SVG Version: 6.00 Build 0)  -->
<!DOCTYPE svg PUBLIC "-//W3C//DTD SVG 1.1//EN" "http://www.w3.org/Graphics/SVG/1.1/DTD/svg11.dtd">
<svg version="1.1" id="Layer_1" xmlns="http://www.w3.org/2000/svg" xmlns:xlink="http://www.w3.org/1999/xlink" x="0px" y="0px"
	 width="50px" height="50px" viewBox="0 0 50 50" enable-background="new 0 0 50 50" xml:space="preserve">
<path d="M21.325,16.236c-0.171,1.049-4.073,1.509-4.073,1.509c1.516,6.249,6.573,14.253,6.573,14.253
	c1.538-1.751,3.663-2.323,3.663-2.323c4.743,2.202,4.248,6.271,4.248,6.271c-6.5,7.771-9.768,5.118-11.695,2.862
	c-10.001-11.702-9.867-23.623-9.867-23.623c0.387-6.391,7.945-6.673,9.145-6.145C21.036,9.796,21.458,15.419,21.325,16.236z
	 M33.562,31.498c2.651-1.268,4.65-3.49,5.63-6.261c0.979-2.771,0.82-5.756-0.447-8.407c-2.615-5.473-9.196-7.8-14.669-5.185
	c-0.76,0.362-1.082,1.273-0.719,2.033c0.363,0.76,1.273,1.082,2.034,0.72c3.958-1.891,8.713-0.209,10.603,3.746
	c0.916,1.917,1.031,4.074,0.323,6.076s-2.153,3.609-4.069,4.525c-0.76,0.362-1.082,1.272-0.719,2.033
	c0.263,0.551,0.811,0.869,1.383,0.868C33.13,31.646,33.354,31.598,33.562,31.498z M26.427,25.646l0.229-1.245l-2.358,0.007v-0.02
	l0.646-0.468c1.162-0.894,2.23-1.829,2.226-3.174c-0.003-1.012-0.725-1.789-2.06-1.785c-0.749,0.003-1.507,0.248-2.032,0.574
	l0.297,1.041c0.343-0.214,0.798-0.388,1.385-0.39c0.587-0.002,0.912,0.331,0.914,0.797c0.003,0.789-0.845,1.562-2.156,2.638
	l-1.414,1.098l-0.169,0.942L26.427,25.646z M31.408,25.629l0.298-1.6l0.779-0.003l0.199-1.113l-0.77,0.003l0.716-3.868l-1.791,0.006
	l-3.123,4.019l-0.179,0.972l2.802-0.01l-0.298,1.6L31.408,25.629z M29.173,22.925l0.011-0.021l1.077-1.4
	c0.313-0.437,0.564-0.851,0.856-1.298h0.041c-0.1,0.416-0.22,0.871-0.31,1.286L30.55,22.92L29.173,22.925z"/>
</svg>
