<?xml version="1.0" encoding="utf-8"?>
<!-- Generator: Adobe Illustrator 16.0.4, SVG Export Plug-In . SVG Version: 6.00 Build 0)  -->
<!DOCTYPE svg PUBLIC "-//W3C//DTD SVG 1.1//EN" "http://www.w3.org/Graphics/SVG/1.1/DTD/svg11.dtd">
<svg version="1.1" id="Layer_1" xmlns="http://www.w3.org/2000/svg" xmlns:xlink="http://www.w3.org/1999/xlink" x="0px" y="0px"
	 width="50px" height="50px" viewBox="0 0 50 50" enable-background="new 0 0 50 50" xml:space="preserve">
<path d="M3.559,28.752v16.889h42.882V28.752H3.559z M42.865,42.063H7.136v-9.735h35.729V42.063z M39.43,19.38h-0.148v-6.477h-2.436
	v-2.453h2.584V4.359H28.004v6.091h2.583v2.453H10.718v6.477H10.68l-5.334,8.377h39.306L39.43,19.38z M30.091,6.446h7.252v1.918
	h-7.252V6.446z M12.806,14.991h24.389v2.744H12.806V14.991z M18.451,20.118l-0.26,1.371h-2.037l0.401-1.371H18.451z M13.242,21.944
	h2.084l-0.448,1.371h-2.225L13.242,21.944z M10.722,21.488l0.777-1.371h1.896l-0.636,1.371H10.722z M13.438,21.488l0.589-1.371
	h1.896l-0.448,1.371H13.438z M10.463,21.944h2.084l-0.636,1.371H9.686L10.463,21.944z M10.214,26.971H7.613L8.39,25.6h2.46
	L10.214,26.971z M8.649,25.144l0.777-1.371h2.272l-0.636,1.371H8.649z M13.683,26.971h-2.602L11.67,25.6h2.46L13.683,26.971z
	 M11.867,25.144l0.589-1.371h2.272l-0.448,1.371H11.867z M17.151,26.971H14.55l0.401-1.371h2.46L17.151,26.971z M17.498,25.144
	h-2.414l0.401-1.371h2.272L17.498,25.144z M15.619,23.315l0.401-1.371h2.084l-0.26,1.371H15.619z M20.62,26.971h-2.601l0.213-1.371
	h2.46L20.62,26.971z M20.716,25.144h-2.414l0.213-1.371h2.272L20.716,25.144z M20.811,23.315h-2.225l0.213-1.371h2.084
	L20.811,23.315z M20.907,21.488H18.87l0.213-1.371h1.896L20.907,21.488z M39.902,39.58H10.098v-4.768h7.749v2.257h14.305v-2.257
	h7.75V39.58z"/>
</svg>
