<?xml version="1.0" encoding="utf-8"?>
<!-- Generator: Adobe Illustrator 16.0.4, SVG Export Plug-In . SVG Version: 6.00 Build 0)  -->
<!DOCTYPE svg PUBLIC "-//W3C//DTD SVG 1.1//EN" "http://www.w3.org/Graphics/SVG/1.1/DTD/svg11.dtd">
<svg version="1.1" id="Layer_1" xmlns="http://www.w3.org/2000/svg" xmlns:xlink="http://www.w3.org/1999/xlink" x="0px" y="0px"
	 width="50px" height="50px" viewBox="0 0 50 50" enable-background="new 0 0 50 50" xml:space="preserve">
<path d="M36.523,33.391c-1.42-1.893-5.002-7.289-6.064-8.898l2.096-5.418c0.15-0.394,0.059-0.84-0.242-1.14
	c-0.086-0.088-0.785-0.754-1.91-0.93v-0.369h3.064v-1.348l1.174,0.563c1.43-0.87,1.125-1.903,1.125-1.903
	c-9.219-2.854-8.986-4.711-8.986-4.711l-1.244-0.002v-0.9c0.982-0.24,1.712-1.127,1.712-2.184c0-1.238-1.007-2.246-2.246-2.246
	s-2.246,1.008-2.246,2.246c0,0.297,0.238,0.534,0.534,0.534c0.295,0,0.533-0.237,0.533-0.534c0-0.648,0.527-1.179,1.179-1.179
	s1.179,0.529,1.179,1.179s-0.527,1.18-1.179,1.18c-0.295,0-0.534,0.238-0.534,0.533v1.371l-1.335-0.002
	c-1.351,2.479-8.716,5.153-8.716,5.153c-0.811,0.688,1.023,1.947,1.023,1.947l1.095-0.596v0.896h3.073v0.412
	c-0.697,0.078-1.402,0.359-2.102,0.842c-0.41,0.285-0.568,0.816-0.381,1.279l2.294,5.66c-0.161,0.383-0.765,1.514-2.987,4.317
	c-0.526,0.58-6.529,7.412-5.301,14.785c0.034,0.213,0.135,0.408,0.283,0.564c0.059,0.061,1.463,1.496,3.663,1.496
	c0.649,0,1.302-0.125,1.944-0.371c0.449,0.156,1.17,0.35,1.996,0.35c0.684,0,1.316-0.131,1.892-0.387
	c0.544,0.227,1.432,0.512,2.45,0.512c0.639,0,1.244-0.113,1.804-0.336c0.43,0.105,1.14,0.242,1.918,0.242
	c0.767,0,1.451-0.129,2.042-0.387c0.507,0.145,1.368,0.342,2.258,0.342c0.705,0,1.322-0.121,1.844-0.361
	c0.416,0.078,1.09,0.18,1.842,0.18c1.586,0,2.813-0.426,3.651-1.266c0.194-0.189,0.306-0.453,0.313-0.727
	C39.037,43.508,39.178,36.926,36.523,33.391z M18.954,14.425l5.985-3.25l6.736,3.25H30.4v-0.291h-2.135v0.291h-6.523v-0.291h-2.135
	v0.291H18.954z M28.268,16.636v0.689c-0.354,0.162-0.699,0.375-1.039,0.645l-2.393,1.447l-2.77-1.674
	c-0.075-0.063-0.188-0.146-0.324-0.23v-0.877H28.268L28.268,16.636z M20.005,19.16c0.388,0,0.632,0.174,0.687,0.217
	c0.063,0.072,0.104,0.094,0.191,0.146l3.4,2.057c0.34,0.205,0.766,0.205,1.105,0l3.004-1.818c0.043-0.026,0.084-0.055,0.121-0.086
	c0.471-0.383,0.922-0.578,1.344-0.578c0.139,0,0.266,0.021,0.377,0.054l-1.702,4.401h-7.327l-1.74-4.295
	C19.652,19.193,19.834,19.16,20.005,19.16z M35.066,43.641c-0.934,0-1.73-0.201-1.736-0.203c-0.296-0.078-0.607-0.025-0.862,0.145
	c-0.237,0.158-0.612,0.242-1.087,0.242c-0.982,0-1.98-0.355-1.988-0.357c-0.303-0.107-0.639-0.078-0.914,0.088
	c-0.349,0.209-0.817,0.314-1.396,0.314c-0.883,0-1.666-0.254-1.671-0.254c-0.272-0.092-0.572-0.068-0.829,0.066
	c-0.361,0.186-0.771,0.281-1.223,0.281c-1.041,0-1.943-0.498-1.947-0.5c-0.164-0.094-0.346-0.141-0.529-0.141
	c-0.199,0-0.398,0.057-0.572,0.168c-0.36,0.229-0.797,0.346-1.291,0.346c-0.836,0-1.547-0.328-1.547-0.328
	c-0.291-0.141-0.63-0.143-0.92-0.004c-0.496,0.236-0.994,0.354-1.475,0.354c-0.881,0-1.562-0.402-1.896-0.65
	c-0.809-6.379,4.791-12.582,4.85-12.645c0.018-0.02,0.033-0.039,0.05-0.059c2.021-2.545,2.917-3.967,3.291-4.814h7.317
	c1.09,1.648,4.656,7.023,6.127,8.982c1.84,2.451,2.059,7.068,2.078,8.574C36.361,43.564,35.632,43.641,35.066,43.641z"/>
</svg>
