<?xml version="1.0" encoding="iso-8859-1"?>
<!-- Generator: Adobe Illustrator 16.0.0, SVG Export Plug-In . SVG Version: 6.00 Build 0)  -->
<!DOCTYPE svg PUBLIC "-//W3C//DTD SVG 1.1//EN" "http://www.w3.org/Graphics/SVG/1.1/DTD/svg11.dtd">
<svg version="1.1" id="Layer_1" xmlns="http://www.w3.org/2000/svg" xmlns:xlink="http://www.w3.org/1999/xlink" x="0px" y="0px"
	 width="512px" height="512px" viewBox="0 0 512 512" style="enable-background:new 0 0 512 512;" xml:space="preserve">
<g>
	<path d="M466.971,467.439V44.561c0-6.903-5.597-12.5-12.5-12.5h-96.24c-6.903,0-12.5,5.597-12.5,12.5v155.059h-28.304
		l-124.817-85.577c-3.828-2.624-8.791-2.913-12.895-0.749c-4.104,2.162-6.673,6.42-6.673,11.059v64.041L64.598,114.042
		c-3.827-2.624-8.792-2.913-12.895-0.749c-4.104,2.162-6.674,6.42-6.674,11.059v343.088c0,6.903,5.597,12.5,12.5,12.5h396.941
		C461.374,479.939,466.971,474.343,466.971,467.439z M441.971,454.939H70.029V148.078l108.443,74.351
		c3.826,2.623,8.791,2.911,12.895,0.75c4.104-2.163,6.674-6.42,6.674-11.06v-64.041l108.443,74.351
		c2.081,1.427,4.545,2.19,7.068,2.19h44.678c6.904,0,12.5-5.597,12.5-12.5V57.061h71.24V454.939z"/>
	<path d="M199.784,248.697H108.03c-6.903,0-12.5,5.597-12.5,12.5v62.264c0,6.903,5.597,12.5,12.5,12.5h91.754
		c6.903,0,12.5-5.597,12.5-12.5v-62.264C212.284,254.294,206.688,248.697,199.784,248.697z M187.284,310.961H120.53v-37.264h66.754
		V310.961z"/>
	<path d="M343.97,248.697h-91.755c-6.903,0-12.5,5.597-12.5,12.5v62.264c0,6.903,5.597,12.5,12.5,12.5h91.755
		c6.903,0,12.5-5.597,12.5-12.5v-62.264C356.47,254.294,350.873,248.697,343.97,248.697z M331.47,310.961h-66.755v-37.264h66.755
		V310.961z"/>
</g>
</svg>
