<?xml version="1.0" encoding="iso-8859-1"?>
<!-- Generator: Adobe Illustrator 17.0.0, SVG Export Plug-In . SVG Version: 6.00 Build 0)  -->
<!DOCTYPE svg PUBLIC "-//W3C//DTD SVG 1.1//EN" "http://www.w3.org/Graphics/SVG/1.1/DTD/svg11.dtd">
<svg version="1.1" id="Capa_1" xmlns="http://www.w3.org/2000/svg" xmlns:xlink="http://www.w3.org/1999/xlink" x="0px" y="0px"
	 width="64px" height="64px" viewBox="0 0 64 64" style="enable-background:new 0 0 64 64;" xml:space="preserve">
<g>
	<path d="M21.11,51.096c4.211,0,8.079-1.492,11.108-3.972c3.029,2.48,6.897,3.972,11.107,3.972c9.687,0,17.566-7.88,17.566-17.565
		c0-7.351-4.639-13.984-11.542-16.505c-0.653-0.239-1.35-0.113-1.872,0.271c-0.075-0.017-0.141-0.046-0.228-0.046h-0.5
		c-1.271,0-1.283,1.935-0.048,1.99c0.118,0.683,0.579,1.288,1.278,1.543c5.331,1.946,8.913,7.069,8.913,12.747
		c0,7.48-6.086,13.565-13.566,13.565c-3.134,0-6.014-1.078-8.314-2.869c2.288-2.966,3.664-6.669,3.664-10.696
		c0-3.957-1.353-7.699-3.671-10.71c1.092-0.853,2.324-1.546,3.668-2.037c0.775-0.283,1.268-0.995,1.311-1.77
		c2.141-1.217,4.148-2.65,6.27-3.9c1.11-0.654,0.104-2.383-1.009-1.727c-2.091,1.231-4.07,2.64-6.175,3.845
		c-0.509-0.329-1.157-0.43-1.768-0.206c-1.882,0.687-3.587,1.688-5.084,2.918c-1.497-1.229-3.202-2.23-5.084-2.918
		c-0.732-0.268-1.518-0.072-2.052,0.43c-0.152-0.118-0.336-0.206-0.583-0.206c-1.285,0-1.288,1.982-0.013,1.997
		c0.12,0.68,0.581,1.282,1.277,1.536c1.344,0.491,2.576,1.184,3.668,2.037c-2.318,3.011-3.671,6.753-3.671,10.71
		c0,4.027,1.376,7.73,3.664,10.696c-2.299,1.791-5.18,2.869-8.314,2.869c-7.48,0-13.565-6.085-13.565-13.565
		c0-5.678,3.582-10.801,8.913-12.747c0.743-0.271,1.22-0.937,1.297-1.674c1.949-0.977,3.75-2.19,5.5-3.496
		c1.021-0.762,0.026-2.499-1.009-1.727c-1.691,1.262-3.43,2.436-5.302,3.397c-0.52-0.375-1.21-0.494-1.856-0.258
		C8.184,19.546,3.545,26.179,3.545,33.53C3.545,43.216,11.425,51.096,21.11,51.096z M32.219,25.757
		c1.562,2.234,2.458,4.934,2.458,7.774c0,2.888-0.914,5.562-2.458,7.764c-1.544-2.202-2.458-4.876-2.458-7.764
		C29.761,30.691,30.656,27.991,32.219,25.757z"/>
</g>
</svg>
